<?xml version="1.0" encoding="UTF-8" standalone="no"?>
<!-- Created with Inkscape (http://www.inkscape.org/) -->

<svg
   width="62.981968mm"
   height="26.776806mm"
   viewBox="0 0 62.981968 26.776806"
   version="1.1"
   id="svg1"
   xml:space="preserve"
   xmlns="http://www.w3.org/2000/svg"
   xmlns:svg="http://www.w3.org/2000/svg"><defs
     id="defs1" /><g
     id="layer1"
     transform="translate(-82.422783,-145.70823)"><g
       id="g1"><rect
         style="fill:#fefefe;fill-opacity:1;stroke:none;stroke-width:0.273696"
         id="rect1"
         width="62.981964"
         height="26.776814"
         x="82.422791"
         y="145.70822"
         ry="0" /><path
         fill-rule="evenodd"
         clip-rule="evenodd"
         d="m 114.0461,146.31453 c -7.14771,0 -12.92595,5.82083 -12.92595,13.022 0,5.75627 3.70232,10.62884 8.83841,12.35339 0.64214,0.12965 0.87736,-0.28019 0.87736,-0.62494 0,-0.30189 -0.0212,-1.33668 -0.0212,-2.41485 -3.59569,0.77628 -4.34446,-1.55231 -4.34446,-1.55231 -0.57785,-1.50919 -1.43404,-1.89707 -1.43404,-1.89707 -1.17687,-0.79772 0.0857,-0.79772 0.0857,-0.79772 1.30546,0.0863 1.99046,1.33668 1.99046,1.33668 1.15544,1.98332 3.01731,1.42293 3.76635,1.07791 0.10689,-0.84084 0.44952,-1.42293 0.81333,-1.74625 -2.86782,-0.30189 -5.88513,-1.42293 -5.88513,-6.42487 0,-1.42293 0.51329,-2.5871 1.32662,-3.49251 -0.12832,-0.32332 -0.57785,-1.66026 0.12859,-3.44963 0,0 1.0914,-0.34502 3.55229,1.33667 a 12.427479,12.427479 0 0 1 3.23162,-0.43127 c 1.09141,0 2.20398,0.15108 3.23136,0.43127 2.46116,-1.68169 3.55256,-1.33667 3.55256,-1.33667 0.70644,1.78937 0.25665,3.12631 0.12832,3.44963 0.83476,0.90541 1.32689,2.06958 1.32689,3.49251 0,5.00194 -3.01731,6.10129 -5.90656,6.42487 0.47096,0.40958 0.87736,1.1856 0.87736,2.41459 0,1.74625 -0.0212,3.14775 -0.0212,3.57875 0,0.34502 0.23548,0.75486 0.87736,0.62548 5.13609,-1.72508 8.8384,-6.59739 8.8384,-12.35366 0.0212,-7.20117 -5.77823,-13.022 -12.90452,-13.022 z"
         fill="#24292f"
         id="path1"
         style="stroke-width:0.264583" /></g></g></svg>
